<?xml version="1.0" encoding="UTF-8" standalone="no"?>
<svg
   xmlns:dc="http://purl.org/dc/elements/1.1/"
   xmlns:cc="http://creativecommons.org/ns#"
   xmlns:rdf="http://www.w3.org/1999/02/22-rdf-syntax-ns#"
   xmlns:svg="http://www.w3.org/2000/svg"
   xmlns="http://www.w3.org/2000/svg"
   xmlns:sodipodi="http://sodipodi.sourceforge.net/DTD/sodipodi-0.dtd"
   xmlns:inkscape="http://www.inkscape.org/namespaces/inkscape"
   width="46.755985mm"
   height="21.88748mm"
   viewBox="0 0 46.830711 21.887478"
   version="1.1"
   id="svg8"
   inkscape:version="1.0.1 (3bc2e813f5, 2020-09-07)"
   sodipodi:docname="logo.svg">
  <defs
     id="defs2" />
  <sodipodi:namedview
     id="base"
     pagecolor="#007574"
     bordercolor="#666666"
     borderopacity="1.0"
     inkscape:pageopacity="0"
     inkscape:pageshadow="2"
     inkscape:zoom="3.1349909"
     inkscape:cx="86.054143"
     inkscape:cy="40.535794"
     inkscape:document-units="mm"
     inkscape:current-layer="text12"
     inkscape:document-rotation="0"
     showgrid="false"
     inkscape:window-width="1366"
     inkscape:window-height="704"
     inkscape:window-x="0"
     inkscape:window-y="0"
     inkscape:window-maximized="1"
     inkscape:pagecheckerboard="false"
     showguides="true"
     inkscape:guide-bbox="true"
     units="mm"
     fit-margin-top="2"
     fit-margin-left="2"
     lock-margins="true"
     fit-margin-right="2"
     fit-margin-bottom="2"
     viewbox-width="62.67361" />
  <metadata
     id="metadata5">
    <rdf:RDF>
      <cc:Work
         rdf:about="">
        <dc:format>image/svg+xml</dc:format>
        <dc:type
           rdf:resource="http://purl.org/dc/dcmitype/StillImage" />
        <dc:title></dc:title>
      </cc:Work>
    </rdf:RDF>
  </metadata>
  <g
     inkscape:label="Layer 1"
     inkscape:groupmode="layer"
     id="layer1"
     transform="translate(-49.08213,-40.892416)">
    <g
       aria-label="snap"
       id="text12"
       style="font-style:normal;font-weight:normal;font-size:15.3458px;line-height:1.25;font-family:sans-serif;letter-spacing:0.529167px;word-spacing:0px;fill:#ffffff;fill-opacity:1;stroke:#ffffff;stroke-width:0.265006;stroke-miterlimit:4;stroke-dasharray:none;stroke-opacity:1">
      <path
         d="m 54.348391,57.312334 c -0.705907,0 -1.248694,0.0047 -2.01162,-0.0029 -0.777905,-0.01081 -0.831992,-1.011328 -0.02904,-1.010471 0,0 1.564921,0.03121 2.055987,0.03121 0.153458,0 0.342723,-0.01535 0.567794,-0.04604 0.225072,-0.03069 0.439913,-0.08696 0.644524,-0.168803 0.214841,-0.08185 0.393876,-0.204611 0.537103,-0.3683 0.143227,-0.163688 0.214841,-0.373414 0.214841,-0.629177 0,-0.317147 -0.122766,-0.56268 -0.368299,-0.736599 -0.245533,-0.173919 -0.562679,-0.306916 -0.95144,-0.398991 -0.38876,-0.102305 -0.803096,-0.199495 -1.243009,-0.29157 -0.429683,-0.09208 -0.838904,-0.209726 -1.227664,-0.352953 -0.388761,-0.153458 -0.705907,-0.363184 -0.95144,-0.629178 -0.245533,-0.276225 -0.368299,-0.649639 -0.368299,-1.120244 0,-0.695676 0.250648,-1.232779 0.751944,-1.611309 0.511527,-0.38876 1.263471,-0.58314 2.255833,-0.58314 0.675215,0 1.659972,-0.06571 2.079424,-0.02917 0.76853,0.0077 0.807235,1.003211 -0.02894,1.01652 -0.441085,-0.02319 -1.436648,-0.0051 -2.081173,-0.0051 -1.217433,0 -1.82615,0.368299 -1.82615,1.104898 0,0.306916 0.122766,0.542218 0.368299,0.705907 0.245533,0.163688 0.562679,0.296685 0.95144,0.39899 0.38876,0.09208 0.797981,0.18415 1.227664,0.276225 0.439913,0.08184 0.854249,0.199495 1.243009,0.352953 0.388761,0.153458 0.705907,0.373415 0.95144,0.65987 0.245533,0.276224 0.368299,0.654754 0.368299,1.135589 0,0.746829 -0.286455,1.319739 -0.859365,1.71873 -0.562679,0.38876 -1.319739,0.58314 -2.271178,0.58314 z"
         style="font-style:normal;font-variant:normal;font-weight:normal;font-stretch:normal;font-size:15.3458px;font-family:Questrial;-inkscape-font-specification:Questrial;letter-spacing:0.661458px;fill:#ffffff;fill-opacity:1;stroke:#ffffff;stroke-width:0.265006;stroke-miterlimit:4;stroke-dasharray:none;stroke-opacity:1"
         id="path854"
         sodipodi:nodetypes="sccsscsssccccscsccsssccscscss" />
      <path
         d="m 63.391263,49.393901 c 0.531988,0 1.233244,0.127882 1.693618,0.383645 0.470605,0.245533 0.849134,0.618947 1.135589,1.120243 0.296686,0.491066 0.445029,1.099783 0.445029,1.826151 0,0 -0.0137,3.276071 -0.0174,3.821644 0.02801,1.000264 -1.096606,1.021632 -1.150935,0 0.01555,-0.554198 0.0174,-3.790953 0.0174,-3.790953 0,-0.695676 -0.199496,-1.25324 -0.598487,-1.672692 -0.398991,-0.429683 -0.915633,-0.644524 -1.549926,-0.644524 -0.643877,0.03267 -0.562653,-1.031705 0.02511,-1.043514 z"
         style="font-style:normal;font-variant:normal;font-weight:normal;font-stretch:normal;font-size:15.3458px;font-family:Questrial;-inkscape-font-specification:Questrial;letter-spacing:0.661458px;fill:#ffffff;fill-opacity:1;stroke:#ffffff;stroke-width:0.265006;stroke-miterlimit:4;stroke-dasharray:none;stroke-opacity:1"
         id="path856"
         sodipodi:nodetypes="cccsccscccc" />
      <path
         d="m 72.594524,57.312334 c -0.746829,0 -1.401584,-0.173919 -1.964263,-0.521757 -0.552449,-0.358069 -0.982131,-0.838904 -1.289047,-1.442505 -0.306916,-0.603602 -0.460374,-1.268587 -0.460374,-1.994955 0,-0.736598 0.153458,-1.401583 0.460374,-1.994954 0.306916,-0.603601 0.736598,-1.079321 1.289047,-1.427159 0.562679,-0.358069 1.217434,-0.537103 1.964263,-0.537103 0.634293,0 1.176511,0.122766 1.626655,0.368299 0.460374,0.245533 0.833788,0.578025 1.120243,0.997477 l 0.02747,-0.599164 c -0.01431,-1.026916 1.186548,-1.045924 1.150935,0 l -0.0063,6.289545 c -0.05921,1.138455 -1.190516,1.140439 -1.150935,0 l -0.0212,-0.488154 c -0.286455,0.409221 -0.659869,0.736598 -1.120243,0.982131 -0.450144,0.245533 -0.992362,0.368299 -1.626655,0.368299 z m 0.153458,-1.043514 c 0.57291,0 1.053745,-0.132997 1.442505,-0.398991 0.398991,-0.265994 0.700791,-0.618947 0.905402,-1.05886 0.204611,-0.450144 0.306916,-0.936095 0.306916,-1.457852 0,-0.531987 -0.102305,-1.017938 -0.306916,-1.457851 -0.204611,-0.439913 -0.506411,-0.792866 -0.905402,-1.05886 -0.38876,-0.265994 -0.869595,-0.398991 -1.442505,-0.398991 -0.562679,0 -1.04863,0.132997 -1.457851,0.398991 -0.409221,0.265994 -0.721253,0.618947 -0.936094,1.05886 -0.214841,0.439913 -0.322262,0.925864 -0.322262,1.457851 0,0.521757 0.107421,1.007708 0.322262,1.457852 0.214841,0.439913 0.526873,0.792866 0.936094,1.05886 0.409221,0.265994 0.895172,0.398991 1.457851,0.398991 z"
         style="font-style:normal;font-variant:normal;font-weight:normal;font-stretch:normal;font-size:15.3458px;font-family:Questrial;-inkscape-font-specification:Questrial;letter-spacing:0.661458px;fill:#ffffff;fill-opacity:1;stroke:#ffffff;stroke-width:0.265006;stroke-miterlimit:4;stroke-dasharray:none;stroke-opacity:1"
         id="path858"
         sodipodi:nodetypes="scssccsccccccccssccsscsssscss" />
      <path
         d="m 79.107832,59.903649 0.03404,-6.775086 c 0.269981,-0.651105 0.876578,-1.969183 1.2692,-2.384232 0.286455,-0.419451 0.654755,-0.746828 1.104898,-0.982131 0.460374,-0.245533 1.007707,-0.368299 1.642,-0.368299 0.746829,0 1.396468,0.179034 1.948917,0.537103 0.562679,0.347838 0.997477,0.823558 1.304393,1.427159 0.306916,0.593371 0.460374,1.258356 0.460374,1.994954 0,0.726368 -0.153458,1.391353 -0.460374,1.994955 -0.306916,0.603601 -0.741714,1.084436 -1.304393,1.442505 -0.552449,0.347838 -1.202088,0.521757 -1.948917,0.521757 -0.634293,0 -1.181626,-0.122766 -1.642,-0.368299 -0.450143,-0.255763 -1.041274,-0.576351 -1.327729,-0.985572 l -0.03333,3.945186 c 0,0.992021 -1.028416,1.027405 -1.047081,0 z m 3.896679,-3.634829 c 0.57291,0 1.05886,-0.132997 1.457851,-0.398991 0.409221,-0.265994 0.721253,-0.618947 0.936094,-1.05886 0.214841,-0.450144 0.322262,-0.936095 0.322262,-1.457852 0,-0.531987 -0.107421,-1.017938 -0.322262,-1.457851 -0.214841,-0.439913 -0.526873,-0.792866 -0.936094,-1.05886 -0.398991,-0.265994 -0.884941,-0.398991 -1.457851,-0.398991 -0.562679,0 -1.043514,0.132997 -1.442505,0.398991 -0.398991,0.265994 -0.700791,0.618947 -0.905402,1.05886 -0.204611,0.439913 -0.306916,0.925864 -0.306916,1.457851 0,0.521757 0.102305,1.007708 0.306916,1.457852 0.204611,0.439913 0.506411,0.792866 0.905402,1.05886 0.398991,0.265994 0.879826,0.398991 1.442505,0.398991 z"
         style="font-style:normal;font-variant:normal;font-weight:normal;font-stretch:normal;font-size:15.3458px;font-family:Questrial;-inkscape-font-specification:Questrial;letter-spacing:0.661458px;fill:#ffffff;fill-opacity:1;stroke:#ffffff;stroke-width:0.265006;stroke-miterlimit:4;stroke-dasharray:none;stroke-opacity:1"
         id="path860"
         sodipodi:nodetypes="scccsccsscsccccsccsscsssscssc" />
    </g>
    <g
       aria-label="JS"
       id="text11"
       style="font-style:normal;font-weight:normal;font-size:10.5833px;line-height:1.25;font-family:sans-serif;letter-spacing:0.661458px;fill:#ffff37;fill-opacity:1;stroke:none;stroke-width:0.264583">
      <path
         d="m 88.178258,60.647999 q -0.413279,0 -0.692678,-0.157162 -0.273579,-0.162983 -0.4191,-0.407458 -0.145521,-0.250296 -0.174625,-0.512233 h 0.454025 q 0.02328,0.151341 0.122237,0.302683 0.09895,0.151342 0.2794,0.250296 0.180446,0.09895 0.454025,0.09895 0.261937,0 0.419099,-0.08149 0.162984,-0.08731 0.238654,-0.227012 0.08149,-0.1397 0.110596,-0.296862 0.0291,-0.162984 0.0291,-0.308504 v -2.561166 h 0.436563 v 2.578628 q 0,0.337608 -0.122238,0.640291 -0.116416,0.302683 -0.395816,0.494771 -0.273579,0.186266 -0.739246,0.186266 z"
         style="font-style:normal;font-variant:normal;font-weight:normal;font-stretch:normal;font-size:5.82083px;font-family:Questrial;-inkscape-font-specification:Questrial;fill:#ffff37;fill-opacity:1;stroke-width:0.264583"
         id="path19" />
      <path
         d="m 92.384593,60.647999 q -0.570441,0 -0.925512,-0.151341 -0.35507,-0.157163 -0.535516,-0.430742 -0.174625,-0.273579 -0.203729,-0.617008 h 0.454025 q 0.01746,0.2794 0.186266,0.454025 0.168804,0.168804 0.442383,0.250296 0.2794,0.08149 0.611187,0.08149 0.48895,0 0.774171,-0.168805 0.28522,-0.174624 0.28522,-0.512233 0,-0.203729 -0.14552,-0.325966 -0.1397,-0.128058 -0.378354,-0.20955 -0.232833,-0.08149 -0.512233,-0.145521 -0.2794,-0.06985 -0.564621,-0.14552 -0.2794,-0.07567 -0.518054,-0.192088 -0.232833,-0.116416 -0.378354,-0.296862 -0.1397,-0.186267 -0.1397,-0.471487 0,-0.471488 0.360892,-0.76835 0.366712,-0.296862 1.088495,-0.296862 0.512233,0 0.84402,0.157162 0.331788,0.151342 0.494771,0.401637 0.168804,0.250296 0.186267,0.541338 h -0.448204 q -0.03493,-0.291042 -0.291042,-0.48895 -0.256116,-0.203729 -0.785812,-0.203729 -0.325966,0 -0.529695,0.06403 -0.203729,0.06403 -0.314325,0.168804 -0.104775,0.09895 -0.145521,0.20955 -0.03493,0.110596 -0.03493,0.20955 0,0.192087 0.1397,0.314325 0.145521,0.116416 0.378354,0.197908 0.238654,0.07567 0.523875,0.1397 0.28522,0.06403 0.56462,0.145521 0.285221,0.07567 0.518054,0.197908 0.238654,0.116416 0.378354,0.302683 0.145521,0.186266 0.145521,0.477308 0,0.535516 -0.407458,0.826558 -0.407459,0.28522 -1.1176,0.28522 z"
         style="font-style:normal;font-variant:normal;font-weight:normal;font-stretch:normal;font-size:5.82083px;font-family:Questrial;-inkscape-font-specification:Questrial;fill:#ffff37;fill-opacity:1;stroke-width:0.264583"
         id="path21" />
    </g>
    <path
       d="m 63.391263,49.393901 c -0.531988,0 -1.233244,0.127882 -1.693618,0.383645 -0.470605,0.245533 -0.849134,0.618947 -1.135589,1.120243 -0.296686,0.491066 -0.445029,1.099783 -0.445029,1.826151 0,0 0.0137,3.276071 0.0174,3.821644 -0.02801,1.000264 1.096606,1.021632 1.150935,0 -0.01555,-0.554198 -0.0174,-3.790953 -0.0174,-3.790953 0,-0.695676 0.199496,-1.25324 0.598487,-1.672692 0.398992,-0.429683 0.915634,-0.644524 1.549927,-0.644524 0.643877,0.03267 0.562653,-1.031705 -0.02511,-1.043514 z"
       style="font-style:normal;font-variant:normal;font-weight:normal;font-stretch:normal;font-size:15.3458px;line-height:1.25;font-family:Questrial;-inkscape-font-specification:Questrial;letter-spacing:0.661458px;word-spacing:0px;fill:#ffffff;fill-opacity:1;stroke:#ffffff;stroke-width:0.265006;stroke-miterlimit:4;stroke-dasharray:none;stroke-opacity:1"
       id="path856-9"
       sodipodi:nodetypes="cccsccscccc" />
    <path
       d="M 86.389666,52.483468 C 86.119685,51.832363 85.990569,51.15938 85.597947,50.744331 85.311492,50.32488 84.943192,49.997503 84.493049,49.7622 c -0.460373,-0.245533 -1.007707,-0.368299 -1.642,-0.368299 -0.746829,0 -1.396468,0.179034 -1.948917,0.537103 -0.562679,0.347838 -0.997477,0.823558 -1.304393,1.427159 -0.306916,0.593371 -0.460374,1.258356 -0.460374,1.994954 0,0.726368 0.153458,1.391353 0.460374,1.994956 0.306916,0.6036 0.741714,1.084435 1.304393,1.442504 0.552449,0.347838 1.202088,0.521757 1.948917,0.521757 0.634293,0 1.181627,-0.122765 1.642,-0.368299 0.450143,-0.255762 0.818443,-0.588256 1.104898,-0.997477 0.426337,-0.693694 0.331942,-1.601909 0.791719,-3.46309 z m -3.385155,3.785352 c -0.57291,0 -1.05886,-0.132997 -1.457851,-0.39899 -0.409221,-0.265995 -0.721253,-0.618948 -0.936094,-1.058861 -0.214841,-0.450144 -0.322262,-0.936095 -0.322262,-1.457852 0,-0.531987 0.107421,-1.017938 0.322262,-1.457851 0.214841,-0.439913 0.526873,-0.792866 0.936094,-1.05886 0.398991,-0.265994 0.884941,-0.398991 1.457851,-0.398991 0.562679,0 1.043514,0.132997 1.442505,0.398991 0.398991,0.265994 0.700791,0.618947 0.905402,1.05886 0.204611,0.439913 0.306916,0.925864 0.306916,1.457851 0,0.521757 -0.102305,1.007708 -0.306916,1.457852 -0.204611,0.439913 -0.506411,0.792866 -0.905402,1.058861 -0.398991,0.265993 -0.879826,0.39899 -1.442505,0.39899 z"
       style="font-style:normal;font-variant:normal;font-weight:normal;font-stretch:normal;font-size:15.3458px;line-height:1.25;font-family:Questrial;-inkscape-font-specification:Questrial;letter-spacing:0.661458px;word-spacing:0px;fill:#ffffff;fill-opacity:1;stroke:#ffffff;stroke-width:0.265006;stroke-miterlimit:4;stroke-dasharray:none;stroke-opacity:1"
       id="path860-2"
       sodipodi:nodetypes="cccsccsscscccsccsscsssscss" />
    <path
       id="rect925"
       style="fill:#ffffff;fill-opacity:1;stroke:#ffffff;stroke-width:0.265006;stroke-miterlimit:4;stroke-dasharray:none;stroke-opacity:1"
       d="m 82.437331,44.166323 c -0.08426,-1.473017 1.256588,-1.591482 1.230392,-0.0509 l 0.06402,1.977049 c 0.03521,1.366167 -1.322831,1.414105 -1.277378,0.02868 z"
       sodipodi:nodetypes="ccccc"
       inkscape:transform-center-x="-0.19945671"
       inkscape:transform-center-y="-8.4166489" />
    <path
       id="rect925-3"
       style="fill:#ffffff;fill-opacity:1;stroke:#ffffff;stroke-width:0.265006;stroke-miterlimit:4;stroke-dasharray:none;stroke-opacity:1"
       d="m 89.251594,46.664852 c 0.996349,-1.088195 2.01682,-0.210388 0.895,0.845831 l -1.371518,1.425399 c -0.954037,0.978501 -1.935985,0.03917 -0.911869,-0.894993 z"
       sodipodi:nodetypes="ccccc"
       inkscape:transform-center-x="-6.1489996"
       inkscape:transform-center-y="-5.7328626" />
    <path
       id="rect925-3-6"
       style="fill:#ffffff;fill-opacity:1;stroke:#ffffff;stroke-width:0.265006;stroke-miterlimit:4;stroke-dasharray:none;stroke-opacity:1"
       d="m 92.21365,53.178706 c 1.474075,-0.06311 1.573285,1.279298 0.03324,1.230996 l -1.977764,0.03564 c -1.366532,0.0156 -1.394977,-1.342986 -0.01034,-1.277658 z"
       sodipodi:nodetypes="ccccc"
       inkscape:transform-center-x="-8.4131523"
       inkscape:transform-center-y="0.31441889" />
  </g>
</svg>
