<?xml version="1.0" encoding="UTF-8" standalone="no"?>
<svg
   xmlns:dc="http://purl.org/dc/elements/1.1/"
   xmlns:cc="http://creativecommons.org/ns#"
   xmlns:rdf="http://www.w3.org/1999/02/22-rdf-syntax-ns#"
   xmlns:svg="http://www.w3.org/2000/svg"
   xmlns="http://www.w3.org/2000/svg"
   xmlns:xlink="http://www.w3.org/1999/xlink"
   xmlns:sodipodi="http://sodipodi.sourceforge.net/DTD/sodipodi-0.dtd"
   xmlns:inkscape="http://www.inkscape.org/namespaces/inkscape"
   width="20mm"
   height="20mm"
   viewBox="0 0 20.031965 19.999999"
   version="1.1"
   id="svg8"
   inkscape:version="1.0.1 (3bc2e813f5, 2020-09-07)"
   sodipodi:docname="favicon.svg"
   inkscape:export-filename="/home/scotty/projects/snapjs/snapjs-ui/public/favicon.png"
   inkscape:export-xdpi="78.374626"
   inkscape:export-ydpi="78.374626">
  <defs
     id="defs2">
    <linearGradient
       inkscape:collect="always"
       id="linearGradient881">
      <stop
         style="stop-color:#008b8a;stop-opacity:1;"
         offset="0"
         id="stop877" />
      <stop
         style="stop-color:#006a59;stop-opacity:1"
         offset="1"
         id="stop879" />
    </linearGradient>
    <radialGradient
       inkscape:collect="always"
       xlink:href="#linearGradient881"
       id="radialGradient883"
       cx="79.688095"
       cy="53.747337"
       fx="79.688095"
       fy="53.747337"
       r="10.39443"
       gradientTransform="matrix(3.1397395,-3.1244372,2.6613529,2.6743175,-315.39949,166.7053)"
       gradientUnits="userSpaceOnUse" />
  </defs>
  <sodipodi:namedview
     id="base"
     pagecolor="#ffffff"
     bordercolor="#666666"
     borderopacity="1.0"
     inkscape:pageopacity="0"
     inkscape:pageshadow="2"
     inkscape:zoom="1.1879394"
     inkscape:cx="33.900044"
     inkscape:cy="42.030263"
     inkscape:document-units="mm"
     inkscape:current-layer="layer1"
     inkscape:document-rotation="0"
     showgrid="false"
     inkscape:window-width="1366"
     inkscape:window-height="704"
     inkscape:window-x="0"
     inkscape:window-y="0"
     inkscape:window-maximized="1"
     inkscape:pagecheckerboard="false"
     showguides="true"
     inkscape:guide-bbox="true"
     units="mm"
     fit-margin-top="2"
     fit-margin-left="2"
     lock-margins="true"
     fit-margin-right="2"
     fit-margin-bottom="2"
     viewbox-width="62.67361" />
  <metadata
     id="metadata5">
    <rdf:RDF>
      <cc:Work
         rdf:about="">
        <dc:format>image/svg+xml</dc:format>
        <dc:type
           rdf:resource="http://purl.org/dc/dcmitype/StillImage" />
        <dc:title></dc:title>
      </cc:Work>
    </rdf:RDF>
  </metadata>
  <g
     inkscape:label="Layer 1"
     inkscape:groupmode="layer"
     id="layer1"
     transform="translate(-78.079815,-40.89172)">
    <path
       id="rect843"
       style="fill:url(#radialGradient883);fill-opacity:1;stroke:none;stroke-width:0.265424;stroke-miterlimit:4;stroke-dasharray:none;stroke-opacity:1"
       d="m 82.090331,40.884133 12.508296,-0.04497 c 2.35156,-0.02212 3.62266,1.548731 3.560904,3.829909 l 0.0017,12.814651 c -0.04464,2.22228 -1.158361,3.50374 -3.562596,3.554377 l -12.508296,0.04993 c -2.585377,0.0433 -3.981771,-1.52741 -4.044331,-3.604307 l 0.09431,-12.774865 c 0.01068,-2.839219 1.170881,-3.7915 3.950023,-3.824721 z"
       sodipodi:nodetypes="ccccccccc" />
    <g
       aria-label="snap"
       id="text12"
       style="font-style:normal;font-weight:normal;font-size:15.3458px;line-height:1.25;font-family:sans-serif;letter-spacing:0.529167px;word-spacing:0px;fill:#ffffff;fill-opacity:1;stroke:#ffffff;stroke-width:0.265006;stroke-miterlimit:4;stroke-dasharray:none;stroke-opacity:1"
       transform="matrix(1.306014,0,0,1.306014,16.620397,-16.755841)">
      <path
         d="m 54.348391,57.312334 c -0.705907,0 -1.248694,0.0047 -2.01162,-0.0029 -0.777905,-0.01081 -0.831992,-1.011328 -0.02904,-1.010471 0,0 1.564921,0.03121 2.055987,0.03121 0.153458,0 0.342723,-0.01535 0.567794,-0.04604 0.225072,-0.03069 0.439913,-0.08696 0.644524,-0.168803 0.214841,-0.08185 0.393876,-0.204611 0.537103,-0.3683 0.143227,-0.163688 0.214841,-0.373414 0.214841,-0.629177 0,-0.317147 -0.122766,-0.56268 -0.368299,-0.736599 -0.245533,-0.173919 -0.562679,-0.306916 -0.95144,-0.398991 -0.38876,-0.102305 -0.803096,-0.199495 -1.243009,-0.29157 -0.429683,-0.09208 -0.838904,-0.209726 -1.227664,-0.352953 -0.388761,-0.153458 -0.705907,-0.363184 -0.95144,-0.629178 -0.245533,-0.276225 -0.368299,-0.649639 -0.368299,-1.120244 0,-0.695676 0.250648,-1.232779 0.751944,-1.611309 0.511527,-0.38876 1.263471,-0.58314 2.255833,-0.58314 0.675215,0 1.659972,-0.06571 2.079424,-0.02917 0.76853,0.0077 0.807235,1.003211 -0.02894,1.01652 -0.441085,-0.02319 -1.436648,-0.0051 -2.081173,-0.0051 -1.217433,0 -1.82615,0.368299 -1.82615,1.104898 0,0.306916 0.122766,0.542218 0.368299,0.705907 0.245533,0.163688 0.562679,0.296685 0.95144,0.39899 0.38876,0.09208 0.797981,0.18415 1.227664,0.276225 0.439913,0.08184 0.854249,0.199495 1.243009,0.352953 0.388761,0.153458 0.705907,0.373415 0.95144,0.65987 0.245533,0.276224 0.368299,0.654754 0.368299,1.135589 0,0.746829 -0.286455,1.319739 -0.859365,1.71873 -0.562679,0.38876 -1.319739,0.58314 -2.271178,0.58314 z"
         style="font-style:normal;font-variant:normal;font-weight:normal;font-stretch:normal;font-size:15.3458px;font-family:Questrial;-inkscape-font-specification:Questrial;letter-spacing:0.661458px;fill:#ffffff;fill-opacity:1;stroke:#ffffff;stroke-width:0.265006;stroke-miterlimit:4;stroke-dasharray:none;stroke-opacity:1"
         id="path854"
         sodipodi:nodetypes="sccsscsssccccscsccsssccscscss" />
    </g>
    <path
       id="rect925"
       style="fill:#ffff37;fill-opacity:1;stroke:#ffff37;stroke-width:0.215553;stroke-miterlimit:4;stroke-dasharray:none;stroke-opacity:1"
       d="m 86.944403,43.543461 c -0.08426,-0.974553 1.256588,-1.05293 1.230392,-0.03367 l 0.06402,1.308022 c 0.03521,0.90386 -1.322831,0.935576 -1.277378,0.01897 z"
       sodipodi:nodetypes="ccccc"
       inkscape:transform-center-x="-0.0056272576"
       inkscape:transform-center-y="-7.0410337" />
    <path
       id="rect925-5"
       style="fill:#ffff37;fill-opacity:1;stroke:#ffff37;stroke-width:0.215553;stroke-miterlimit:4;stroke-dasharray:none;stroke-opacity:1"
       d="m 93.092564,44.822166 c 0.633,-0.745764 1.63239,0.151585 0.88989,0.850349 l -0.884135,0.966088 c -0.617303,0.661165 -1.595647,-0.281239 -0.912517,-0.894074 z"
       sodipodi:nodetypes="ccccc"
       inkscape:transform-center-x="-4.9849569"
       inkscape:transform-center-y="-4.9525347" />
    <path
       id="rect925-5-3"
       style="fill:#ffff37;fill-opacity:1;stroke:#ffff37;stroke-width:0.215553;stroke-miterlimit:4;stroke-dasharray:none;stroke-opacity:1"
       d="m 95.225497,50.536726 c 0.974458,-0.08535 1.054332,1.255412 0.03504,1.230354 l -1.30795,0.06548 c -0.90382,0.03622 -0.937052,-1.321786 -0.0204,-1.277356 z"
       sodipodi:nodetypes="ccccc"
       inkscape:transform-center-x="-7.0410155"
       inkscape:transform-center-y="-0.0022199253" />
  </g>
</svg>
